<?xml version="1.0" encoding="UTF-8" standalone="no"?>
<svg width="64px" height="64px" viewBox="0 0 64 64" version="1.1" xmlns="http://www.w3.org/2000/svg" xmlns:xlink="http://www.w3.org/1999/xlink">
    <!-- Generator: Sketch 3.6.1 (26313) - http://www.bohemiancoding.com/sketch -->
    <title>code</title>
    <desc>Created with Sketch.</desc>
    <defs></defs>
    <g id="Page-1" stroke="none" stroke-width="1" fill="none" fill-rule="evenodd">
        <g id="MyWork" transform="translate(-419.000000, -220.000000)">
            <g id="code" transform="translate(419.000000, 220.000000)">
                <rect id="Rectangle-2" x="0" y="0" width="64" height="64"></rect>
                <circle id="Oval-86" stroke="#4A4A4A" fill="#4A4A4A" cx="32" cy="32" r="31"></circle>
                <g id="Group" transform="translate(11.000000, 14.000000)" fill="#FFFFFF">
                    <g transform="translate(8.338983, 12.807692)" id="Shape">
                        <path d="M9.15376271,9.50249451 L9.15376271,12.0652527 L0.0406779661,8.11651923 L0.0406779661,5.92538736 L9.15376271,1.97756868 L9.15376271,4.55821703 L2.8040339,7.00367308 L9.15376271,9.50249451 L9.15376271,9.50249451 Z"></path>
                        <path d="M14.7889831,1.92308516 L12.2516949,12.3636923 C12.1672881,12.7072637 12.093661,12.9792747 12.0302034,13.1787088 C11.9667458,13.3780412 11.8706441,13.5339698 11.740678,13.6443599 C11.6108136,13.7563764 11.4220678,13.811978 11.1740339,13.811978 C10.5587797,13.811978 10.250339,13.5456593 10.250339,13.0155632 C10.250339,12.8765082 10.3106441,12.5293791 10.4313559,11.9741758 L12.9588814,1.53356868 C13.0918983,0.978467033 13.2187119,0.597997253 13.3394237,0.393074176 C13.4601356,0.187846154 13.6953559,0.0850796703 14.0462034,0.0850796703 C14.3480339,0.0850796703 14.5791864,0.157656593 14.7387458,0.302607143 C14.8988136,0.447557692 14.9791525,0.64689011 14.9791525,0.900197802 C14.9792542,1.08733242 14.9152881,1.42826099 14.7889831,1.92308516 L14.7889831,1.92308516 Z"></path>
                        <path d="M25.1795593,8.11651923 L16.0665763,12.0830412 L16.0665763,9.52028297 L22.4352203,7.02146154 L16.0665763,4.55811538 L16.0665763,2.01375549 L25.1795593,5.94327747 L25.1795593,8.11651923 L25.1795593,8.11651923 Z"></path>
                    </g>
                    <path d="M39.3845085,0.0730851648 L2.51379661,0.0730851648 C1.12566102,0.0730851648 0,1.19853571 0,2.58603571 L0,34.4142692 C0,35.801261 1.12566102,36.9270165 2.51379661,36.9270165 L39.3846102,36.9270165 C40.7731525,36.9270165 41.8984068,35.801261 41.8984068,34.4142692 L41.8984068,2.58603571 C41.8983051,1.19802747 40.7730508,0.0730851648 39.3845085,0.0730851648 L39.3845085,0.0730851648 Z M33.0997627,1.74835165 C34.0233559,1.74835165 34.7756949,2.49953297 34.7756949,3.42361813 C34.7756949,4.34739835 34.0233559,5.09868132 33.0997627,5.09868132 C32.1754576,5.09868132 31.4237288,4.34739835 31.4237288,3.42361813 C31.4237288,2.49963462 32.1754576,1.74835165 33.0997627,1.74835165 L33.0997627,1.74835165 Z M28.4910508,1.74835165 C29.4147458,1.74835165 30.1665763,2.49953297 30.1665763,3.42361813 C30.1665763,4.34739835 29.4147458,5.09868132 28.4910508,5.09868132 C27.5668475,5.09868132 26.8150169,4.34739835 26.8150169,3.42361813 C26.8149153,2.49963462 27.5668475,1.74835165 28.4910508,1.74835165 L28.4910508,1.74835165 Z M39.3845085,34.4142692 L2.51379661,34.4142692 L2.51379661,6.7739478 L39.3846102,6.7739478 L39.3846102,34.4142692 L39.3845085,34.4142692 Z M37.7084746,5.09868132 C36.7847797,5.09868132 36.0325424,4.34739835 36.0325424,3.42361813 C36.0325424,2.49953297 36.7847797,1.74835165 37.7084746,1.74835165 C38.6321695,1.74835165 39.3845085,2.49953297 39.3845085,3.42361813 C39.3845085,4.34739835 38.6321695,5.09868132 37.7084746,5.09868132 L37.7084746,5.09868132 Z" id="Shape"></path>
                </g>
            </g>
        </g>
    </g>
</svg>