<?xml version="1.0" encoding="UTF-8" standalone="no"?>
<svg width="62px" height="62px" viewBox="0 0 62 62" version="1.1" xmlns="http://www.w3.org/2000/svg" xmlns:xlink="http://www.w3.org/1999/xlink">
    <!-- Generator: Sketch 3.6.1 (26313) - http://www.bohemiancoding.com/sketch -->
    <title>infinity</title>
    <desc>Created with Sketch.</desc>
    <defs>
        <circle id="path-1" cx="32" cy="32" r="31"></circle>
    </defs>
    <g id="Page-1" stroke="none" stroke-width="1" fill="none" fill-rule="evenodd">
        <g id="MyWork" transform="translate(-18.000000, -301.000000)">
            <g id="infinity" transform="translate(17.000000, 300.000000)">
                <rect id="Rectangle-2" x="0" y="0" width="64" height="64"></rect>
                <mask id="mask-2" fill="white">
                    <use xlink:href="#path-1"></use>
                </mask>
                <use id="Oval-86" xlink:href="#path-1"></use>
                <path d="M44.0088284,19.0357899 C51.2699207,19.5528174 57,25.6072429 57,33 C57,40.7319865 50.7319865,47 43,47 C38.4930596,47 34.4835292,44.8703346 31.9228432,41.5624381 L34.7836222,38.7016591 C36.5897314,41.2994689 39.5962755,43 43,43 C48.5228475,43 53,38.5228475 53,33 C53,27.6787285 48.8437026,23.3282123 43.6003822,23.0177258 C39.885095,23.3521612 38.2082247,28.3709807 34.0999985,33.989033 C30.6473388,39.804604 26.4958494,44.6584473 24,46 C21.5041506,47.3415527 19.0000003,47 19.0000003,47 C19.0000003,47 18.9995495,46.9877997 18.9987243,46.9647459 C11.7340531,46.4513805 6,40.3953202 6,33 C6,25.2680135 12.2680135,19 20,19 C24.7636975,19 28.9716965,21.3792282 31.5005155,25.0142032 L28.6077125,27.9070061 C26.8658201,24.9693572 23.6628941,23 20,23 C14.4771525,23 10,27.4771525 10,33 C10,38.3262108 14.1640169,42.6798633 19.4142215,42.9831283 C23.1743853,42.6739611 25.6134953,38.1477339 29.9000015,32.0461382 C33.5418702,25.7233886 37.205368,21.1641659 39,20 C41.0292969,18.6235352 44,19 44,19 C44,19 44.0031168,19.0123897 44.0088284,19.0357899 L44.0088284,19.0357899 Z" id="Combined-Shape" fill="#FFFFFF" mask="url(#mask-2)"></path>
            </g>
        </g>
    </g>
</svg>