<?xml version="1.0" encoding="UTF-8" standalone="no"?>
<svg width="64px" height="62px" viewBox="0 0 64 62" version="1.1" xmlns="http://www.w3.org/2000/svg" xmlns:xlink="http://www.w3.org/1999/xlink">
    <!-- Generator: Sketch 3.6.1 (26313) - http://www.bohemiancoding.com/sketch -->
    <title>learn</title>
    <desc>Created with Sketch.</desc>
    <defs></defs>
    <g id="Page-1" stroke="none" stroke-width="1" fill="none" fill-rule="evenodd">
        <g id="MyWork" transform="translate(-496.000000, -221.000000)">
            <g id="learn" transform="translate(495.978015, 220.000000)">
                <rect id="Rectangle-2" x="1.13686838e-13" y="0" width="64" height="64"></rect>
                <circle id="Oval-86" cx="32" cy="32" r="31"></circle>
                <path d="M18.9416891,38.9806861 L22.8392606,45.7314781 C18.46374,47.0408313 16.3933447,49.6496282 16.3933447,49.6496282 C14.9756084,50.9477027 15.3961274,52 17.3284234,52 L38.768772,52 C40.702938,52 41.1608634,50.90625 39.6859792,49.6496282 C39.6859792,49.6496282 36.0134265,45.0659527 28.1908556,45.0007033 L22.8473837,35.7455477 C22.344402,37.4954234 20.8082614,38.8080453 18.9416891,38.9806861 Z" id="Combined-Shape" fill="#FFFFFF"></path>
                <path d="M22.8863454,33.3990954 L29.0581191,27.2273216 C29.1530106,27.3192279 29.2499903,27.4076709 29.3489008,27.4926513 C28.671422,31.1008109 29.7298364,34.9713076 32.5229945,37.7644656 L33.578334,38.8198052 L39.2602512,33.1378879 C40.6311629,34.1656904 42.5845862,34.0561936 43.8313823,32.8093975 C45.0781784,31.5626014 45.1876752,29.6091781 44.1598727,28.2382664 L49.8417899,22.5563492 L48.7864504,21.5010097 C45.9887819,18.7033411 42.1194219,17.6464042 38.5129864,18.3251679 C38.4057506,18.2003366 38.2929934,18.0786205 38.1747132,17.9603402 L35.3459158,15.1315429 C32.8027002,12.5883272 28.6921207,12.5933201 26.1537128,15.131728 C23.8342973,17.4511434 23.6341194,21.1012986 25.5651213,23.6492516 L19.1683048,30.0460681 C20.9821228,30.306955 22.4464188,31.6495799 22.8863454,33.3990954 Z M26.5072662,20.4350288 L27.9214797,19.0208153 L30.7499068,21.8492424 L29.3356933,23.263456 L26.5072662,20.4350288 Z M30.0428001,16.8994949 L31.4570136,15.4852814 L34.2854408,18.3137085 L32.8712272,19.7279221 L30.0428001,16.8994949 Z" id="Combined-Shape" fill="#FFFFFF"></path>
                <circle id="Oval-106" fill="#FFFFFF" cx="18.5219848" cy="34.5" r="3.5"></circle>
            </g>
        </g>
    </g>
</svg>