<?xml version="1.0" encoding="UTF-8" standalone="no"?>
<svg width="64px" height="64px" viewBox="0 0 64 64" version="1.1" xmlns="http://www.w3.org/2000/svg" xmlns:xlink="http://www.w3.org/1999/xlink">
    <!-- Generator: Sketch 3.6.1 (26313) - http://www.bohemiancoding.com/sketch -->
    <title>plan</title>
    <desc>Created with Sketch.</desc>
    <defs></defs>
    <g id="Page-1" stroke="none" stroke-width="1" fill="none" fill-rule="evenodd">
        <g id="MyWork" transform="translate(-97.000000, -220.000000)">
            <g id="plan" transform="translate(97.000000, 220.000000)">
                <rect id="Rectangle-2" x="0" y="0" width="64" height="64"></rect>
                <circle id="Oval-86" stroke="#4A4A4A" fill="#4A4A4A" cx="32" cy="32" r="31"></circle>
                <path d="M22,48.8764648 C29,43.9991455 35,36.1797017 35,29 C35,21.8202983 29.1797017,16 22,16 C14.8202983,16 9,21.8202983 9,29 C9,36.1797017 15,43.9991455 22,48.8764648 L22,48.8764648 Z M22,37 C26.418278,37 30,33.418278 30,29 C30,24.581722 26.418278,21 22,21 C17.581722,21 14,24.581722 14,29 C14,33.418278 17.581722,37 22,37 L22,37 Z" id="Combined-Shape" fill="#FFFFFF"></path>
                <path d="M53,20 C53,16.8325665 49.9097816,14.0203857 46.5,14.0203857 C43.0902184,14.0203857 40,16.8325665 40,20 C40,23.7177431 43.0096436,28.0336914 46.6783634,29.8047162 C49.9748535,28.0336914 53,23.8208621 53,20 Z M46.5,24 C48.4329966,24 50,22.4329966 50,20.5 C50,18.5670034 48.4329966,17 46.5,17 C44.5670034,17 43,18.5670034 43,20.5 C43,22.4329966 44.5670034,24 46.5,24 L46.5,24 Z" id="Combined-Shape" fill="#FFFFFF"></path>
                <path d="M47.6493238,35.6381127 C47.6488744,35.6304077 47.6488744,35.6304077 47.6498218,35.6521413 C47.6799142,36.4872474 47.4741391,37.6210058 46.8245387,38.7105866 C46.4790715,39.2900421 46.0276351,39.8066625 45.4546351,40.2481177 C44.5590018,40.9381385 43.8623802,41.1089162 42.1347717,41.2212642 C41.2503137,41.2787813 40.8444475,41.3198164 40.3175804,41.4299148 C39.1329955,41.6774552 38.123417,42.2041342 37.176138,43.1555014 C35.7882378,44.5493913 35.6819964,45.742252 36.1875331,47.8049161 C36.5632226,49.3377841 36.5055128,49.6629055 35.4698957,50.3025055 C34.5106733,50.8949239 32.9607627,51.246584 31.0036624,51.3625011 C29.4546442,51.4542479 27.7816701,51.39503 26.152062,51.2398831 C25.7720536,51.2037044 25.425331,51.1649978 25.1193841,51.1264028 C24.938111,51.1035353 24.8123465,51.086046 24.7495345,51.0765847 C24.2034105,50.9943227 23.694003,51.3703572 23.611741,51.9164812 C23.529479,52.4626051 23.9055134,52.9720126 24.4516374,53.0542746 C24.5298608,53.0660573 24.6714344,53.0857451 24.8690691,53.1106766 C25.194635,53.1517465 25.5615294,53.192705 25.9625091,53.2308803 C27.6861895,53.3949834 29.4564616,53.4576452 31.1219131,53.3590022 C33.3804866,53.2252292 35.2191516,52.8080534 36.5208269,52.0041352 C38.4776448,50.7955991 38.6885286,49.6075358 38.1300419,47.3288281 C37.7735999,45.8744924 37.82099,45.3424033 38.5933933,44.5666666 C39.2569615,43.9002346 39.9140581,43.5574391 40.7266797,43.3876272 C41.1312578,43.3030833 41.4731957,43.2685117 42.2645594,43.2170485 C44.359514,43.0808117 45.3794391,42.8307757 46.6752478,41.8324487 C47.4521629,41.2338916 48.0705405,40.526225 48.5424032,39.7347652 C49.0453875,38.8911048 49.36,37.9936018 49.5243662,37.0879942 C49.6327749,36.4906947 49.6627394,35.9746012 49.6485246,35.5801196 C49.6461712,35.5247692 49.6461712,35.5247692 49.6446215,35.5010474 C49.606772,34.9500612 49.1294263,34.5340817 48.57844,34.5719312 C48.0274538,34.6097807 47.6114743,35.0871265 47.6493238,35.6381127 L47.6493238,35.6381127 Z" id="Path-114" fill="#FFFFFF"></path>
            </g>
        </g>
    </g>
</svg>