<?xml version="1.0" encoding="UTF-8" standalone="no"?>
<svg width="64px" height="64px" viewBox="0 0 64 64" version="1.1" xmlns="http://www.w3.org/2000/svg" xmlns:xlink="http://www.w3.org/1999/xlink">
    <!-- Generator: Sketch 3.6.1 (26313) - http://www.bohemiancoding.com/sketch -->
    <title>tools</title>
    <desc>Created with Sketch.</desc>
    <defs></defs>
    <g id="Page-1" stroke="none" stroke-width="1" fill="none" fill-rule="evenodd">
        <g id="MyWork" transform="translate(-337.000000, -220.000000)">
            <g id="tools" transform="translate(337.000000, 220.000000)">
                <rect id="Rectangle-2" x="0" y="0" width="64" height="64"></rect>
                <circle id="Oval-86" stroke="#4A4A4A" fill="#4A4A4A" cx="32" cy="32" r="31"></circle>
                <g id="Group-7" transform="translate(8.000000, 13.000000)">
                    <path d="M24,41 L39,18 L9,18 L24,41 L24,41 Z" id="Triangle-7" stroke="#FFFFFF" stroke-width="1.5"></path>
                    <path d="M3,12 L7.49108887,6.69750977 L14,10 L10.0565186,17.489502 L3,12 Z M11,20 L16.5296631,8.98278809 L7,5 L1,11.9973215 L11,20 Z" id="Path-121" fill="#FFFFFF"></path>
                    <path d="M47,12 L41,5 L31.5236816,8.98828125 L37,20 L47,12 Z M38.0003662,17.6399994 L34,10 L40.3218384,6.52624512 L45,12 L38.0003662,17.6399994 Z" id="Path-122" fill="#FFFFFF"></path>
                    <path d="M32,1.5 L38,5 L32,8.5 L16,8.5 L10,5 L16,1.5 L32,1.5 Z M16,0 L7,5 L16,10 L32,10 L41,5 L32,0 L16,0 Z" id="Path-123" fill="#FFFFFF"></path>
                    <path d="M0.997558585,12 L24,42 L24,40 L2,11 L0.997558585,12 Z" id="Path-124" fill="#FFFFFF"></path>
                    <path d="M46.0214844,11.0445556 L24,40 L24,42 L47,12 L46.0214844,11.0445556 Z" id="Path-125" fill="#FFFFFF"></path>
                </g>
            </g>
        </g>
    </g>
</svg>