<?xml version="1.0" encoding="UTF-8" standalone="no"?>
<svg width="62px" height="62px" viewBox="0 0 62 62" version="1.1" xmlns="http://www.w3.org/2000/svg" xmlns:xlink="http://www.w3.org/1999/xlink">
    <!-- Generator: Sketch 3.6.1 (26313) - http://www.bohemiancoding.com/sketch -->
    <title>travel</title>
    <desc>Created with Sketch.</desc>
    <defs>
        <circle id="path-1" cx="32" cy="32" r="31"></circle>
    </defs>
    <g id="Page-1" stroke="none" stroke-width="1" fill="none" fill-rule="evenodd">
        <g id="MyWork" transform="translate(-18.000000, -221.000000)">
            <g id="travel" transform="translate(17.000000, 220.000000)">
                <rect id="Rectangle-2" x="0" y="0" width="64" height="64"></rect>
                <mask id="mask-2" fill="white">
                    <use xlink:href="#path-1"></use>
                </mask>
                <use fill-opacity="0" fill="#FFFFFF" xlink:href="#path-1"></use>
                <g id="Group-8" mask="url(#mask-2)" fill="#FFFFFF">
                    <g transform="translate(15.000000, 11.000000)">
                        <path d="M38.5944461,41.0981805 C33.2086594,46.8823526 25.5268031,50.5 17,50.5 C12.6564025,50.5 8.53206337,49.5612436 4.81880263,47.8755509 L21.3222792,27.85494 C23.0772859,25.7259154 25.9301697,25.73496 27.6777208,27.85494 L38.5944461,41.0981805 Z" id="Combined-Shape"></path>
                        <path d="M15.8198241,20.7331543 C15.8198241,20.7331543 12.7281102,21.3215116 12.5317384,22.6796875 L10.3119007,35.3417318 C10.1147132,36.7055495 13.8545579,38.3537262 13.8545579,38.3537262 C13.8545579,38.3537262 16.5585936,26.6296387 16.8923339,26.6296387 C17.5778112,26.6296387 24.1311659,28.6363959 24.7246097,28.495117 C26.4551023,28.0831454 26.7202142,22.6796876 26.7202142,22.6796876 L15.8198241,20.7331543 Z" id="Path-109"></path>
                        <path d="M0.474022134,15.5098896 L0.321766246,16.072775 L0.862264216,16.2915986 L4.70000625,17.8453299 L5.2546087,18.0698638 L5.53068741,17.5390344 L7.10273193,14.5163908 L7.40101338,13.9428711 L6.83286121,13.6344886 L2.46210838,11.2621247 L1.73043108,10.8649838 L1.51305585,11.6686134 L0.474022134,15.5098896 L0.474022134,15.5098896 Z" id="Path-108"></path>
                        <path d="M0.710161795,15.6789156 L6.30156519,18.8889995 L11.190552,15.0146541 L4.63061296,10.1903462 L0.710161795,15.6789156 Z" id="Path-107"></path>
                        <path d="M19.1516113,11.713623 C20.2512207,9.82080078 21.3320312,16.3828125 21.3320312,16.3828125 L10.8196337,21.1711646 C9.81467775,21.6289178 8.42344738,21.3213365 7.70758295,20.4786883 L7.07836914,19.738037 C7.07836914,19.738037 18.052002,13.6064453 19.1516113,11.713623 Z" id="Path-106"></path>
                        <path d="M18.1311035,9.01391602 C22.0339355,6.99389648 20.7756348,7.61279297 21.6953125,7.15625 L26.7019359,19.6379575 C27.0801631,20.662449 26.5121066,21.3504533 25.4274957,21.1593524 L20.0949652,20.219798 C19.0190156,20.0302232 18.1311035,18.9755082 18.1311035,17.8674348 L18.1311035,9.01391602 Z" id="Path-105"></path>
                        <rect id="Rectangle-167" x="26.271576" y="4.05295584" width="9" height="17" rx="2"></rect>
                        <circle id="Oval-87" cx="17" cy="4" r="4"></circle>
                    </g>
                </g>
            </g>
        </g>
    </g>
</svg>