<?xml version="1.0" encoding="UTF-8" standalone="no"?>
<svg width="62px" height="62px" viewBox="0 0 62 62" version="1.1" xmlns="http://www.w3.org/2000/svg" xmlns:xlink="http://www.w3.org/1999/xlink">
    <!-- Generator: Sketch 3.6.1 (26313) - http://www.bohemiancoding.com/sketch -->
    <title>travel</title>
    <desc>Created with Sketch.</desc>
    <defs></defs>
    <g id="Page-1" stroke="none" stroke-width="1" fill="none" fill-rule="evenodd">
        <g id="MyWork" transform="translate(-18.000000, -221.000000)">
            <g id="travel" transform="translate(17.000000, 220.000000)">
                <rect id="Rectangle-2" x="0" y="0" width="64" height="64"></rect>
                <circle id="Oval-86" fill="#FFFFFF" cx="32" cy="32" r="31"></circle>
                <path d="M28.0099708,48.9387239 L18.8321566,60.0724657 C8.29531477,55.1214143 1,44.4126632 1,32 C1,14.8791728 14.8791728,1 32,1 C49.1208272,1 63,14.8791728 63,32 C63,40.2319807 59.7913468,47.7145402 54.5564805,53.2652387 L42.6777208,38.85494 C42.209216,38.28659 41.6612672,37.86996 41.0763273,37.6055731 C41.6111518,35.9025764 41.7202142,33.6796876 41.7202142,33.6796876 L30.8198241,31.7331543 C30.8198241,31.7331543 27.7281102,32.3215116 27.5317384,33.6796875 L25.3119007,46.3417318 C25.1756371,47.2841787 26.9194263,48.3624156 28.0099708,48.9387239 Z M29.3240196,47.3446319 L36.3222792,38.85494 C36.3475367,38.8242998 36.3730216,38.7941024 36.3987273,38.7643477 C34.4346709,38.2404295 32.2705081,37.6296387 31.8923339,37.6296387 C31.6464363,37.6296387 30.1137902,43.9942264 29.3240196,47.3446319 Z M18.4412192,28.6061541 L21.2473144,30.2171631 L25.3811039,26.9412842 L19.8344726,22.8621826 L18.663524,24.501492 L17.7980906,24.0317508 L17.2420967,23.7299676 L17.0769156,24.3406373 L16.2873648,27.2595826 L16.1716671,27.6873133 L16.5823858,27.853595 L18.4412192,28.6061541 Z M33.1311035,28.6863183 L33.1311035,28.8674348 C33.1311035,29.9755082 34.0190156,31.0302232 35.0949652,31.219798 L40.4274957,32.1593524 C41.5121066,32.3504533 42.0801631,31.662449 41.7019359,30.6379575 L37.0339355,17.9938965 C36.1142578,18.4504394 37.0339355,17.9938965 33.1311035,20.013916 L33.1311035,23.8640377 C30.8155883,25.9950028 25.842041,29.0830077 25.842041,29.0830077 L27.083252,31.1491698 L33.1311035,28.6863183 Z M32,19 C34.209139,19 36,17.209139 36,15 C36,12.790861 34.209139,11 32,11 C29.790861,11 28,12.790861 28,15 C28,17.209139 29.790861,19 32,19 Z M38.6840766,17.9576663 C38.3062715,16.9196554 38.841831,15.7717799 39.8769342,15.3950331 L44.5802993,13.6831482 C45.6169015,13.3058559 46.7616515,13.8363813 47.1413102,14.879485 L51.5874994,27.0952895 C51.9653045,28.1333004 51.429745,29.281176 50.3946418,29.6579227 L45.6912767,31.3698076 C44.6546745,31.7471 43.5099245,31.2165745 43.1302658,30.1734708 L38.6840766,17.9576663 Z M23.8793852,32.5031181 C24.917341,32.8809032 25.9884619,32.5560864 26.2718007,31.7776195 C26.5551395,30.9991526 25.9434015,30.0618253 24.9054457,29.6840403 C23.8674899,29.3062553 22.796369,29.6310721 22.5130302,30.4095389 C22.2296915,31.1880058 22.8414294,32.1253331 23.8793852,32.5031181 Z" id="Combined-Shape" fill="#4A4A4A"></path>
            </g>
        </g>
    </g>
</svg>