<?xml version="1.0" encoding="UTF-8" standalone="no"?>
<svg width="64px" height="64px" viewBox="0 0 64 64" version="1.1" xmlns="http://www.w3.org/2000/svg" xmlns:xlink="http://www.w3.org/1999/xlink">
    <!-- Generator: Sketch 3.6.1 (26313) - http://www.bohemiancoding.com/sketch -->
    <title>uxui</title>
    <desc>Created with Sketch.</desc>
    <defs></defs>
    <g id="Page-1" stroke="none" stroke-width="1" fill="none" fill-rule="evenodd">
        <g id="MyWork" transform="translate(-258.000000, -220.000000)">
            <g id="uxui" transform="translate(258.000000, 220.000000)">
                <rect id="Rectangle-2" x="0" y="0" width="64" height="64"></rect>
                <circle id="Oval-86" stroke="#4A4A4A" fill="#4A4A4A" cx="32" cy="32" r="31"></circle>
                <g id="Layer_1" transform="translate(5.000000, 5.000000)" fill="#FFFFFF">
                    <path d="M28.6875,8.7885 C28.6875,8.505 28.8495,8.2485 29.1195,8.127 C29.484,7.965 29.9025,8.1405 30.0645,8.505 L31.995,13.041 C32.157,13.4055 31.9815,13.824 31.617,13.986 C31.2525,14.148 30.834,13.9725 30.672,13.608 L28.755,9.072 C28.7145,8.991 28.6875,8.883 28.6875,8.7885 L28.6875,8.7885 Z" id="XMLID_4_"></path>
                    <path d="M37.4895,15.0255 C37.4895,14.742 37.6515,14.4855 37.9215,14.364 L42.4575,12.4335 C42.822,12.2715 43.2405,12.447 43.4025,12.8115 C43.5645,13.176 43.389,13.5945 43.0245,13.7565 L38.4885,15.687 C38.124,15.849 37.7055,15.6735 37.5435,15.309 C37.5165,15.2145 37.4895,15.12 37.4895,15.0255 L37.4895,15.0255 Z" id="XMLID_3_"></path>
                    <path d="M34.0065,14.1885 C34.0065,14.121 34.02,14.0535 34.0335,13.9725 L35.4915,9.261 C35.613,8.883 36.0045,8.667 36.396,8.7885 C36.774,8.91 36.99,9.315 36.8685,9.693 L35.4105,14.4045 C35.289,14.7825 34.8975,14.9985 34.506,14.877 C34.1955,14.7825 34.0065,14.499 34.0065,14.1885 L34.0065,14.1885 Z" id="XMLID_2_"></path>
                    <path d="M36.0045,33.6015 C36.261,32.7915 35.829,31.9275 35.019,31.6575 L34.182,31.3875 C33.372,31.131 32.508,31.563 32.238,32.373 L30.6855,37.125 L30.6855,37.125 L28.728,43.146 C28.6335,43.4565 28.296,43.6185 27.999,43.524 L27.675,43.416 C27.3645,43.3215 27.2025,42.984 27.297,42.687 L28.7145,38.3535 L28.7145,38.34 L29.5785,35.6805 L34.56,20.412 L34.9785,19.116 C35.235,18.306 34.803,17.442 33.993,17.172 L33.6015,17.0505 C32.7915,16.794 31.9275,17.226 31.6575,18.036 L26.676,33.3045 L26.6625,33.291 L25.5015,36.855 C25.407,37.1655 25.0695,37.3275 24.7725,37.233 L24.4485,37.125 C24.138,37.0305 23.976,36.693 24.0705,36.396 L25.3125,32.589 L28.0395,24.219 C28.296,23.409 27.864,22.545 27.054,22.275 L26.6625,22.1535 C25.8525,21.897 24.9885,22.329 24.7185,23.139 L21.9645,31.5765 L21.9375,31.5765 L20.709,35.3295 C20.6145,35.64 20.277,35.802 19.98,35.7075 L19.656,35.5995 C19.3455,35.505 19.1835,35.1675 19.278,34.8705 L20.3985,31.4145 L22.221,25.7985 C22.4775,24.9885 22.0455,24.1245 21.2355,23.8545 L20.844,23.733 C20.034,23.4765 19.17,23.9085 18.9,24.7185 L16.5915,31.7925 L16.5645,31.7925 L15.9165,33.777 C15.822,34.0875 15.4845,34.2495 15.1875,34.155 L14.8635,34.047 C14.553,33.9525 14.391,33.615 14.4855,33.318 L14.7825,32.427 L15.633,29.8215 C15.8895,29.0115 15.4575,28.1475 14.6475,27.8775 L14.256,27.756 C13.446,27.4995 12.582,27.9315 12.312,28.7415 L9.288,38.016 C9.2745,38.07 9.261,38.1105 9.2475,38.1645 C9.207,38.2725 9.1665,38.394 9.126,38.502 C7.3035,44.1045 10.9215,50.3145 17.2125,52.38 C23.5035,54.432 30.0915,51.5565 31.9275,45.954 C31.968,45.8325 31.995,45.7245 32.0355,45.603 C32.049,45.5625 32.076,45.5085 32.0895,45.468 L36.0045,33.6015 L36.0045,33.6015 Z" id="XMLID_14_"></path>
                    <path d="M6.372,39.339 C6.4125,39.204 6.4665,39.069 6.5205,38.934 L6.561,38.772 C4.59,35.316 3.4425,31.32 3.4425,27.0675 C3.4425,14.04 14.013,3.456 27,3.456 C39.987,3.456 50.5575,14.0535 50.5575,27.0675 C50.5575,37.9755 43.1325,47.1825 33.0885,49.8825 C32.265,51.516 31.077,52.9065 29.646,54 C43.308,52.6635 54,41.121 54,27.0675 C54,12.1095 41.904,5.68434189e-14 27,5.68434189e-14 C12.0825,5.68434189e-14 0,12.1095 0,27.0675 C0,33.426 2.187,39.258 5.8455,43.875 C5.724,42.3765 5.886,40.8375 6.372,39.339 L6.372,39.339 Z" id="XMLID_1_"></path>
                </g>
            </g>
        </g>
    </g>
</svg>