<?xml version="1.0" encoding="UTF-8" standalone="no"?>
<svg width="62px" height="62px" viewBox="0 0 62 62" version="1.1" xmlns="http://www.w3.org/2000/svg" xmlns:xlink="http://www.w3.org/1999/xlink">
    <!-- Generator: Sketch 3.6.1 (26313) - http://www.bohemiancoding.com/sketch -->
    <title>visual</title>
    <desc>Created with Sketch.</desc>
    <defs></defs>
    <g id="Page-1" stroke="none" stroke-width="1" fill="none" fill-rule="evenodd">
        <g id="MyWork" transform="translate(-180.000000, -221.000000)">
            <g id="visual-design" transform="translate(179.000000, 220.000000)">
                <rect id="Rectangle-2" x="0" y="0" width="64" height="64"></rect>
                <circle id="Oval-86" cx="32" cy="32" r="31"></circle>
                <path d="M31,51 L24.9933977,51 C24.4449463,51 24,51.4477153 24,52 C24,52.5561352 24.4447593,53 24.9933977,53 L41.0066023,53 C41.5550537,53 42,52.5522847 42,52 C42,51.4438648 41.5552407,51 41.0066023,51 L35,51 L35,46 L31,46 L31,51 Z" id="Combined-Shape" fill="#FFFFFF"></path>
                <path d="M31.0831012,20 L48.9976004,20 C50.1034952,20 51,20.8897632 51,22.0035949 L51,42.9964051 C51,44.10296 50.1037214,45 48.9976004,45 L16.0023996,45 C14.8965048,45 14,44.1102368 14,42.9964051 L14,33.9107434 C14.6233373,34.308018 15.2948449,34.6238764 16,34.8581662 L16,40 L49,40 L49,22 L31.5693232,22 C31.4820937,21.3141609 31.3206537,20.6436639 31.0831012,20 Z" id="Combined-Shape" fill="#FFFFFF"></path>
                <path d="M38.3195586,13.7045756 C38.3489746,12.5952864 39.2695992,11.6960299 40.3756755,11.6960299 L40.1540638,11.6960299 C41.2602099,11.6960299 42.1331559,12.5921281 42.1036562,13.7045756 L41.6040113,32.5464412 C41.5745954,33.6557304 40.6539708,34.5549869 39.5478944,34.5549869 L39.7695061,34.5549869 C38.6633601,34.5549869 37.7904141,33.6588887 37.8199137,32.5464412 L38.3195586,13.7045756 Z" id="Rectangle-174" fill="#FFFFFF" transform="translate(39.961785, 23.125508) rotate(-315.000000) translate(-39.961785, -23.125508) "></path>
                <path d="M27.4542082,36.0422321 C27.4542082,36.0422321 31.6362865,35.0856468 31.6362865,33.2136895 C31.6362865,31.3417323 30.4095634,30.7260099 29.3580826,30.7260099 C28.3066018,30.7260099 27.4542082,31.5784035 27.4542082,32.6298843 L27.4542082,36.0422321 Z" id="Oval-92" fill="#FFFFFF" transform="translate(29.545247, 33.384121) rotate(-330.000000) translate(-29.545247, -33.384121) "></path>
                <path d="M24.4916021,33.0846689 C28.4342033,31.7887912 31.2331446,28.5137629 31.2331446,24.6783965 C31.2331446,19.7078338 26.5321344,15.6783965 20.7331446,15.6783965 C14.9341547,15.6783965 10.2331446,19.7078338 10.2331446,24.6783965 C10.2331446,28.8535953 13.5500599,32.3647595 18.0484735,33.3815315 L18.8061014,29.6772013 C19.0284463,28.5900728 20.109184,27.708781 21.2016272,27.708781 L20.7842905,27.708781 C21.884958,27.708781 23.0514944,28.5688255 23.3838469,29.6110058 L24.4916021,33.0846689 Z M21.4117508,19.9123521 C22.4176788,19.9123521 23.2331446,19.1884064 23.2331446,18.2953743 C23.2331446,17.4023421 22.4176788,16.6783965 21.4117508,16.6783965 C20.4058227,16.6783965 19.590357,17.4023421 19.590357,18.2953743 C19.590357,19.1884064 20.4058227,19.9123521 21.4117508,19.9123521 Z M27.4117508,22.9123521 C28.4176788,22.9123521 29.2331446,22.1884064 29.2331446,21.2953743 C29.2331446,20.4023421 28.4176788,19.6783965 27.4117508,19.6783965 C26.4058227,19.6783965 25.590357,20.4023421 25.590357,21.2953743 C25.590357,22.1884064 26.4058227,22.9123521 27.4117508,22.9123521 Z M27.8205828,28.5551397 C28.8265108,28.5551397 29.6419766,27.8311941 29.6419766,26.9381619 C29.6419766,26.0451297 28.8265108,25.3211841 27.8205828,25.3211841 C26.8146548,25.3211841 25.999189,26.0451297 25.999189,26.9381619 C25.999189,27.8311941 26.8146548,28.5551397 27.8205828,28.5551397 Z M15.2331446,22.6783965 C16.3377141,22.6783965 17.2331446,22.0068236 17.2331446,21.1783965 C17.2331446,20.3499694 16.3377141,19.6783965 15.2331446,19.6783965 C14.1285751,19.6783965 13.2331446,20.3499694 13.2331446,21.1783965 C13.2331446,22.0068236 14.1285751,22.6783965 15.2331446,22.6783965 Z M13.7689631,28.6783965 C14.7748912,28.6783965 15.590357,27.9544509 15.590357,27.0614187 C15.590357,26.1683866 14.7748912,25.4444409 13.7689631,25.4444409 C12.7630351,25.4444409 11.9475693,26.1683866 11.9475693,27.0614187 C11.9475693,27.9544509 12.7630351,28.6783965 13.7689631,28.6783965 Z" id="Combined-Shape" fill="#FFFFFF" transform="translate(20.733145, 24.529964) rotate(-40.000000) translate(-20.733145, -24.529964) "></path>
            </g>
        </g>
    </g>
</svg>